<?xml version="1.0" standalone="no"?>
<!DOCTYPE svg PUBLIC "-//W3C//DTD SVG 20010904//EN"
 "http://www.w3.org/TR/2001/REC-SVG-20010904/DTD/svg10.dtd">
<svg version="1.0" xmlns="http://www.w3.org/2000/svg"
 width="512.000000pt" height="512.000000pt" viewBox="0 0 512.000000 512.000000"
 preserveAspectRatio="xMidYMid meet">
<metadata>
Created by potrace 1.14, written by Peter Selinger 2001-2017
</metadata>
<g transform="translate(0.000000,512.000000) scale(0.100000,-0.100000)"
fill="#000000" stroke="none">
<path d="M2900 4160 c-96 -21 -277 -46 -392 -56 l-78 -6 0 -33 c0 -72 6 -77
153 -120 l135 -39 6 -61 c28 -262 37 -1776 15 -2352 -7 -164 -12 -325 -13
-357 l-1 -59 70 -24 c229 -77 473 -117 730 -117 164 -1 202 2 278 22 266 67
456 197 591 404 121 187 176 395 176 673 0 241 -30 391 -112 555 -44 88 -66
119 -138 191 -69 70 -101 94 -170 128 -121 59 -218 81 -357 81 -216 0 -435
-68 -627 -194 -38 -26 -73 -46 -77 -46 -5 0 -5 314 -2 698 l6 699 -42 16 c-49
20 -42 20 -151 -3z m918 -1466 c224 -58 341 -234 374 -566 20 -206 -21 -449
-104 -617 -33 -67 -61 -104 -123 -167 -131 -133 -251 -177 -480 -176 -106 0
-147 5 -225 25 -160 42 -146 28 -154 157 -26 407 -35 1220 -13 1238 22 18 160
69 247 91 169 42 350 48 478 15z"/>
<path d="M1297 2980 c-74 -13 -184 -48 -264 -85 -187 -86 -393 -282 -393 -373
0 -45 119 -176 209 -230 l34 -21 47 24 47 24 -9 58 c-17 108 18 218 94 290
118 113 391 119 522 11 70 -58 76 -81 76 -349 l0 -235 -122 -13 c-590 -60
-934 -283 -977 -631 -11 -88 4 -213 34 -277 71 -157 253 -252 456 -240 167 11
303 64 508 201 62 42 115 76 117 76 2 0 4 -7 4 -15 0 -8 10 -40 21 -71 54
-144 201 -217 371 -185 74 15 187 68 241 114 l38 32 -24 58 c-13 31 -25 55
-28 52 -3 -2 -33 -12 -67 -20 -112 -29 -189 17 -211 127 -6 29 -15 262 -21
518 -18 844 -19 870 -66 962 -50 99 -137 162 -265 193 -69 16 -287 19 -372 5z
m361 -1347 l-3 -258 -80 -53 c-145 -96 -304 -141 -427 -121 -146 24 -221 108
-221 251 0 56 6 79 32 132 34 69 118 156 194 200 96 56 290 103 435 105 l72 1
-2 -257z"/>
</g>
</svg>
